<?xml version="1.0" encoding="UTF-8"?>
<svg version="1.1" xmlns="http://www.w3.org/2000/svg" width="720" height="811">
<path d="M0 0 C1.97205178 0.46930623 3.94410557 0.93860405 5.91622925 1.40760803 C8.03549127 1.91266376 10.15401745 2.42072198 12.27246094 2.92919922 C16.95197077 4.05070581 21.63586596 5.15323179 26.3203125 6.25390625 C42.79581629 10.12850274 59.25132389 14.06408038 75.65820312 18.22119141 C79.09801607 19.08766355 82.54091591 19.94110413 85.984375 20.79296875 C104.47212641 25.37093003 122.89832528 30.16204005 141.30986023 35.03678894 C147.05832644 36.55719801 152.8111181 38.06032774 158.56640625 39.5546875 C181.13997619 45.42112317 203.65518304 51.48509876 226.15039062 57.64526367 C238.31754931 60.97668821 250.4901309 64.2809779 262.6875 67.5 C272.133867 69.99608776 281.5247594 72.63923159 290.89086914 75.42114258 C299.4962624 77.96551692 308.15750337 80.28253059 316.84863281 82.51586914 C323.37243121 84.22746157 329.55440577 86.33161751 335.75 89 C334.58814478 92.00415178 333.36206097 94.86496395 331.796875 97.6796875 C321.38037869 116.69775347 314.55041252 136.69734009 309.3125 157.6875 C309.02460602 158.83578278 309.02460602 158.83578278 308.730896 160.00726318 C296.23490351 210.24556834 292.51937013 262.3663632 292.5625 314 C292.56240936 315.6869548 292.56240936 315.6869548 292.56231689 317.4079895 C292.57741128 337.30432479 293.25779426 357.09000976 294.61071777 376.93731689 C294.74785297 378.96820375 294.87942766 380.99936597 295.00878906 383.03076172 C295.98175543 398.47505637 295.98175543 398.47505637 297.3203125 413.890625 C299.59551602 437.05203935 300.94932762 461.99543095 296.75 485 C296.59402344 485.86915039 296.43804688 486.73830078 296.27734375 487.63378906 C289.32193484 525.12859527 272.69255056 558.66172958 246.82421875 586.7421875 C244.95979587 588.77163463 243.16225446 590.84034156 241.375 592.9375 C234.34328967 600.97374038 226.76591102 608.18584193 218.4140625 614.83203125 C215.86572099 616.90582823 213.46601571 619.07377383 211.0625 621.3125 C205.04413654 626.782019 198.53621225 631.54391574 191.98876953 636.35253906 C189.67225642 638.05720978 187.36478726 639.77358644 185.05859375 641.4921875 C183.4559545 642.6825951 181.85309404 643.87270493 180.25 645.0625 C179.18567749 645.85563599 179.18567749 645.85563599 178.09985352 646.66479492 C165.87497811 655.69501173 153.18723195 664.08660801 140.52655029 672.48822021 C128.66030297 680.36542258 116.81556365 688.27022598 105.10205078 696.37353516 C103.4012568 697.54964991 101.69891042 698.7235208 99.99560547 699.89599609 C87.71656912 708.34944406 75.58351711 716.93275962 63.75 726 C62.59006847 726.88180609 61.42991617 727.76332187 60.26953125 728.64453125 C54.22010317 733.25257619 48.26536706 737.96357554 42.40625 742.8125 C40.69083272 744.22519658 38.9623998 745.6223014 37.21875 747 C29.67687589 752.99715291 22.74586285 759.56468508 15.76953125 766.203125 C12.69635139 769.1228956 9.56715551 771.9600459 6.375 774.75 C-0.21410186 780.62313833 -5.99825651 787.28585262 -11.8046875 793.91796875 C-12.98417969 795.25794922 -12.98417969 795.25794922 -14.1875 796.625 C-15.22197266 797.81996094 -15.22197266 797.81996094 -16.27734375 799.0390625 C-18.21407311 800.96428654 -19.80735851 801.85796103 -22.25 803 C-36.05906654 788.29789546 -36.05906654 788.29789546 -39.875 783.8125 C-46.36575277 776.28651324 -53.57890324 769.25676535 -61.1484375 762.82421875 C-63.26878671 760.98369258 -65.31860674 759.07737717 -67.36743164 757.15795898 C-73.29382078 751.62314341 -79.4808228 746.55801131 -85.8984375 741.60546875 C-88.8012884 739.36414077 -91.62557442 737.04237885 -94.4375 734.6875 C-118.27240229 715.08758035 -144.48144347 698.07811324 -170.1875 681.0546875 C-177.9266958 675.9167214 -185.59463207 670.67803309 -193.25390625 665.421875 C-196.50434853 663.1920602 -199.76194927 660.97348077 -203.02734375 658.765625 C-222.93281487 645.28492121 -242.37958421 631.12139637 -260.25 615 C-261.37535156 613.99453125 -261.37535156 613.99453125 -262.5234375 612.96875 C-265.10675758 610.65435599 -267.67839225 608.32739752 -270.25 606 C-271.26945728 605.08715696 -272.28899098 604.17439928 -273.30859375 603.26171875 C-279.01070681 598.13204264 -284.34283741 592.90540766 -289.25 587 C-290.06855469 586.06929687 -290.88710938 585.13859375 -291.73046875 584.1796875 C-315.59059389 556.93969884 -331.34216852 524.47359224 -338.25 489 C-338.46527344 487.90945313 -338.68054688 486.81890625 -338.90234375 485.6953125 C-342.91519006 463.61001238 -341.89580017 440.57672796 -339.890625 418.33203125 C-339.11351077 409.69591627 -338.50089134 401.04853409 -337.88540649 392.39968872 C-337.69362514 389.71087563 -337.49873492 387.02230203 -337.3034668 384.33374023 C-336.99343978 380.03497913 -336.69740423 375.73544321 -336.41217041 371.43496704 C-336.30888539 369.88415627 -336.2033002 368.33349574 -336.09466553 366.78305054 C-334.95176659 350.23177013 -335.00589352 333.64504524 -335 317.0625 C-334.99941086 316.302327 -334.99882172 315.54215401 -334.99821472 314.75894547 C-334.98401629 288.74326532 -335.62068839 262.90281681 -338.25 237 C-338.32496704 236.25907104 -338.39993408 235.51814209 -338.47717285 234.75476074 C-339.49970425 224.8017184 -340.77097585 214.89646949 -342.25 205 C-342.43288574 203.7732959 -342.61577148 202.5465918 -342.80419922 201.28271484 C-348.15706619 166.26546709 -355.8920565 127.60039039 -374.55078125 96.91796875 C-376.0643649 94.31878028 -377.22305524 91.82018841 -378.25 89 C-372.19318865 86.65633873 -366.08948409 84.63303014 -359.875 82.75 C-358.87750732 82.44698975 -357.88001465 82.14397949 -356.85229492 81.83178711 C-348.37677198 79.28511713 -339.84890293 76.96399127 -331.29516602 74.69628906 C-323.27080169 72.56371705 -315.28828001 70.30708953 -307.3125 68 C-297.33809881 65.1245586 -287.33403351 62.42102869 -277.27807617 59.84667969 C-267.04043139 57.22093425 -256.8314743 54.49406298 -246.625 51.75 C-244.85278774 51.27407165 -243.08057091 50.79816032 -241.30834961 50.32226562 C-233.48949537 48.22156365 -225.67200152 46.11600283 -217.85826111 43.99635315 C-189.53665737 36.31554607 -161.11812312 29.03778275 -132.66473389 21.86181641 C-129.31402823 21.01615955 -125.96382126 20.16855581 -122.61376953 19.3203125 C-99.71981354 13.52558434 -76.82728914 7.82221296 -53.75390625 2.78222656 C-50.06685743 1.95911449 -46.39291877 1.08966672 -42.71875 0.2109375 C-41.49389893 -0.07668457 -40.26904785 -0.36430664 -39.00708008 -0.66064453 C-36.71758003 -1.1990004 -34.4306508 -1.74848115 -32.1472168 -2.31201172 C-20.68356386 -4.96808105 -11.28141171 -2.73284433 0 0 Z " fill="#FEFEFE" transform="translate(382.25,7)"/>
<path d="M0 0 C1.97205178 0.46930623 3.94410557 0.93860405 5.91622925 1.40760803 C8.03549127 1.91266376 10.15401745 2.42072198 12.27246094 2.92919922 C16.95197077 4.05070581 21.63586596 5.15323179 26.3203125 6.25390625 C42.79581629 10.12850274 59.25132389 14.06408038 75.65820312 18.22119141 C79.09801607 19.08766355 82.54091591 19.94110413 85.984375 20.79296875 C104.47212641 25.37093003 122.89832528 30.16204005 141.30986023 35.03678894 C147.05832644 36.55719801 152.8111181 38.06032774 158.56640625 39.5546875 C181.13997619 45.42112317 203.65518304 51.48509876 226.15039062 57.64526367 C238.31754931 60.97668821 250.4901309 64.2809779 262.6875 67.5 C272.133867 69.99608776 281.5247594 72.63923159 290.89086914 75.42114258 C299.4962624 77.96551692 308.15750337 80.28253059 316.84863281 82.51586914 C323.37243121 84.22746157 329.55440577 86.33161751 335.75 89 C334.58814478 92.00415178 333.36206097 94.86496395 331.796875 97.6796875 C321.38037869 116.69775347 314.55041252 136.69734009 309.3125 157.6875 C309.02460602 158.83578278 309.02460602 158.83578278 308.730896 160.00726318 C296.23490351 210.24556834 292.51937013 262.3663632 292.5625 314 C292.56240936 315.6869548 292.56240936 315.6869548 292.56231689 317.4079895 C292.57741128 337.30432479 293.25779426 357.09000976 294.61071777 376.93731689 C294.74785297 378.96820375 294.87942766 380.99936597 295.00878906 383.03076172 C295.98175543 398.47505637 295.98175543 398.47505637 297.3203125 413.890625 C299.59551602 437.05203935 300.94932762 461.99543095 296.75 485 C296.59402344 485.86915039 296.43804688 486.73830078 296.27734375 487.63378906 C289.32193484 525.12859527 272.69255056 558.66172958 246.82421875 586.7421875 C244.95979587 588.77163463 243.16225446 590.84034156 241.375 592.9375 C234.34328967 600.97374038 226.76591102 608.18584193 218.4140625 614.83203125 C215.86572099 616.90582823 213.46601571 619.07377383 211.0625 621.3125 C205.04413654 626.782019 198.53621225 631.54391574 191.98876953 636.35253906 C189.67225642 638.05720978 187.36478726 639.77358644 185.05859375 641.4921875 C183.4559545 642.6825951 181.85309404 643.87270493 180.25 645.0625 C179.18567749 645.85563599 179.18567749 645.85563599 178.09985352 646.66479492 C165.87497811 655.69501173 153.18723195 664.08660801 140.52655029 672.48822021 C128.66030297 680.36542258 116.81556365 688.27022598 105.10205078 696.37353516 C103.4012568 697.54964991 101.69891042 698.7235208 99.99560547 699.89599609 C87.71656912 708.34944406 75.58351711 716.93275962 63.75 726 C62.59006847 726.88180609 61.42991617 727.76332187 60.26953125 728.64453125 C54.22010317 733.25257619 48.26536706 737.96357554 42.40625 742.8125 C40.69083272 744.22519658 38.9623998 745.6223014 37.21875 747 C29.67687589 752.99715291 22.74586285 759.56468508 15.76953125 766.203125 C12.69635139 769.1228956 9.56715551 771.9600459 6.375 774.75 C-0.21410186 780.62313833 -5.99825651 787.28585262 -11.8046875 793.91796875 C-12.98417969 795.25794922 -12.98417969 795.25794922 -14.1875 796.625 C-15.22197266 797.81996094 -15.22197266 797.81996094 -16.27734375 799.0390625 C-18.21407311 800.96428654 -19.80735851 801.85796103 -22.25 803 C-36.05906654 788.29789546 -36.05906654 788.29789546 -39.875 783.8125 C-46.36575277 776.28651324 -53.57890324 769.25676535 -61.1484375 762.82421875 C-63.26878671 760.98369258 -65.31860674 759.07737717 -67.36743164 757.15795898 C-73.29382078 751.62314341 -79.4808228 746.55801131 -85.8984375 741.60546875 C-88.8012884 739.36414077 -91.62557442 737.04237885 -94.4375 734.6875 C-118.27240229 715.08758035 -144.48144347 698.07811324 -170.1875 681.0546875 C-177.9266958 675.9167214 -185.59463207 670.67803309 -193.25390625 665.421875 C-196.50434853 663.1920602 -199.76194927 660.97348077 -203.02734375 658.765625 C-222.93281487 645.28492121 -242.37958421 631.12139637 -260.25 615 C-261.37535156 613.99453125 -261.37535156 613.99453125 -262.5234375 612.96875 C-265.10675758 610.65435599 -267.67839225 608.32739752 -270.25 606 C-271.26945728 605.08715696 -272.28899098 604.17439928 -273.30859375 603.26171875 C-279.01070681 598.13204264 -284.34283741 592.90540766 -289.25 587 C-290.06855469 586.06929687 -290.88710938 585.13859375 -291.73046875 584.1796875 C-315.59059389 556.93969884 -331.34216852 524.47359224 -338.25 489 C-338.46527344 487.90945313 -338.68054688 486.81890625 -338.90234375 485.6953125 C-342.91519006 463.61001238 -341.89580017 440.57672796 -339.890625 418.33203125 C-339.11351077 409.69591627 -338.50089134 401.04853409 -337.88540649 392.39968872 C-337.69362514 389.71087563 -337.49873492 387.02230203 -337.3034668 384.33374023 C-336.99343978 380.03497913 -336.69740423 375.73544321 -336.41217041 371.43496704 C-336.30888539 369.88415627 -336.2033002 368.33349574 -336.09466553 366.78305054 C-334.95176659 350.23177013 -335.00589352 333.64504524 -335 317.0625 C-334.99941086 316.302327 -334.99882172 315.54215401 -334.99821472 314.75894547 C-334.98401629 288.74326532 -335.62068839 262.90281681 -338.25 237 C-338.32496704 236.25907104 -338.39993408 235.51814209 -338.47717285 234.75476074 C-339.49970425 224.8017184 -340.77097585 214.89646949 -342.25 205 C-342.43288574 203.7732959 -342.61577148 202.5465918 -342.80419922 201.28271484 C-348.15706619 166.26546709 -355.8920565 127.60039039 -374.55078125 96.91796875 C-376.0643649 94.31878028 -377.22305524 91.82018841 -378.25 89 C-372.19318865 86.65633873 -366.08948409 84.63303014 -359.875 82.75 C-358.87750732 82.44698975 -357.88001465 82.14397949 -356.85229492 81.83178711 C-348.37677198 79.28511713 -339.84890293 76.96399127 -331.29516602 74.69628906 C-323.27080169 72.56371705 -315.28828001 70.30708953 -307.3125 68 C-297.33809881 65.1245586 -287.33403351 62.42102869 -277.27807617 59.84667969 C-267.04043139 57.22093425 -256.8314743 54.49406298 -246.625 51.75 C-244.85278774 51.27407165 -243.08057091 50.79816032 -241.30834961 50.32226562 C-233.48949537 48.22156365 -225.67200152 46.11600283 -217.85826111 43.99635315 C-189.53665737 36.31554607 -161.11812312 29.03778275 -132.66473389 21.86181641 C-129.31402823 21.01615955 -125.96382126 20.16855581 -122.61376953 19.3203125 C-99.71981354 13.52558434 -76.82728914 7.82221296 -53.75390625 2.78222656 C-50.06685743 1.95911449 -46.39291877 1.08966672 -42.71875 0.2109375 C-41.49389893 -0.07668457 -40.26904785 -0.36430664 -39.00708008 -0.66064453 C-36.71758003 -1.1990004 -34.4306508 -1.74848115 -32.1472168 -2.31201172 C-20.68356386 -4.96808105 -11.28141171 -2.73284433 0 0 Z M-20.25 13 C-20.58 61.18 -20.91 109.36 -21.25 159 C-23.56 156.69 -25.87 154.38 -28.25 152 C-30.07882366 150.3997793 -31.90875668 148.80075841 -33.75 147.21484375 C-37.1443139 144.20769378 -40.44339786 141.10297569 -43.75 138 C-49.42446706 132.66665739 -49.42446706 132.66665739 -55.25 127.5 C-59.83189235 123.55837208 -64.20533415 119.39263874 -68.61450195 115.26049805 C-72.96459335 111.18787604 -77.35862159 107.171464 -81.80078125 103.19921875 C-86.13876325 99.30402917 -90.42452574 95.3515627 -94.71777344 91.40722656 C-97.22677106 89.10291453 -99.73847057 86.80155179 -102.25 84.5 C-105.27482361 81.72806824 -108.29900597 78.95545292 -111.3203125 76.1796875 C-116.71764437 71.22302441 -122.1361973 66.29235266 -127.59765625 61.40625 C-129.623248 59.56859975 -131.62762884 57.71573727 -133.62109375 55.84375 C-134.49229858 55.02861938 -134.49229858 55.02861938 -135.38110352 54.19702148 C-136.51938481 53.13013177 -137.65416255 52.05948816 -138.78491211 50.98461914 C-141.44268241 48.4974448 -143.85042345 46.37132677 -147.25 45 C-147.25 44.34 -147.25 43.68 -147.25 43 C-159.43820498 45.65924472 -171.54484711 48.44476317 -183.51953125 51.94921875 C-187.74346547 53.13899708 -191.98896055 54.20278083 -196.25 55.25 C-210.63030531 58.79129172 -224.91775264 62.68952696 -239.22061157 66.5289917 C-246.23733374 68.41148777 -253.25401464 70.2795422 -260.3125 72 C-267.6811279 73.8146621 -274.96904654 75.86121992 -282.25 78 C-282.58930581 80.95893818 -282.58930581 80.95893818 -280.921875 82.4375 C-280.28765625 82.953125 -279.6534375 83.46875 -279 84 C-275.41911348 87.00088377 -271.9336249 90.08247405 -268.5 93.25 C-267.99702393 93.71132324 -267.49404785 94.17264648 -266.97583008 94.64794922 C-264.27715578 97.12431974 -261.59132651 99.61350469 -258.91796875 102.1171875 C-258.37688477 102.62088867 -257.83580078 103.12458984 -257.27832031 103.64355469 C-256.238808 104.61159654 -255.20283167 105.58345317 -254.17089844 106.55957031 C-251.85200032 108.71317343 -250.29628831 109.98457056 -247.25 111 C-247.25 111.66 -247.25 112.32 -247.25 113 C-245.87042584 114.43467016 -245.87042584 114.43467016 -244 115.9375 C-240.43226561 118.97133047 -236.9444568 122.07751818 -233.5 125.25 C-232.99702393 125.71124268 -232.49404785 126.17248535 -231.97583008 126.64770508 C-229.27732832 129.1243423 -226.59136595 131.61346775 -223.91796875 134.1171875 C-223.37688477 134.62088867 -222.83580078 135.12458984 -222.27832031 135.64355469 C-221.238808 136.61159654 -220.20283167 137.58345317 -219.17089844 138.55957031 C-216.85200032 140.71317343 -215.29628831 141.98457056 -212.25 143 C-212.25 143.66 -212.25 144.32 -212.25 145 C-210.87042584 146.43467016 -210.87042584 146.43467016 -209 147.9375 C-205.43226561 150.97133047 -201.9444568 154.07751818 -198.5 157.25 C-197.99702393 157.71124268 -197.49404785 158.17248535 -196.97583008 158.64770508 C-194.27732832 161.1243423 -191.59136595 163.61346775 -188.91796875 166.1171875 C-188.37688477 166.62088867 -187.83580078 167.12458984 -187.27832031 167.64355469 C-186.238808 168.61159654 -185.20283167 169.58345317 -184.17089844 170.55957031 C-181.85200032 172.71317343 -180.29628831 173.98457056 -177.25 175 C-177.25 175.66 -177.25 176.32 -177.25 177 C-175.87042584 178.43467016 -175.87042584 178.43467016 -174 179.9375 C-170.43226561 182.97133047 -166.9444568 186.07751818 -163.5 189.25 C-162.99702393 189.71124268 -162.49404785 190.17248535 -161.97583008 190.64770508 C-159.27732832 193.1243423 -156.59136595 195.61346775 -153.91796875 198.1171875 C-153.37688477 198.62088867 -152.83580078 199.12458984 -152.27832031 199.64355469 C-151.238808 200.61159654 -150.20283167 201.58345317 -149.17089844 202.55957031 C-146.85200032 204.71317343 -145.29628831 205.98457056 -142.25 207 C-142.25 207.66 -142.25 208.32 -142.25 209 C-140.87042584 210.43467016 -140.87042584 210.43467016 -139 211.9375 C-135.43226561 214.97133047 -131.9444568 218.07751818 -128.5 221.25 C-127.99702393 221.71124268 -127.49404785 222.17248535 -126.97583008 222.64770508 C-124.27732832 225.1243423 -121.59136595 227.61346775 -118.91796875 230.1171875 C-118.37688477 230.62088867 -117.83580078 231.12458984 -117.27832031 231.64355469 C-116.238808 232.61159654 -115.20283167 233.58345317 -114.17089844 234.55957031 C-111.85200032 236.71317343 -110.29628831 237.98457056 -107.25 239 C-107.25 239.66 -107.25 240.32 -107.25 241 C-105.87042584 242.43467016 -105.87042584 242.43467016 -104 243.9375 C-100.43226561 246.97133047 -96.9444568 250.07751818 -93.5 253.25 C-92.99702393 253.71124268 -92.49404785 254.17248535 -91.97583008 254.64770508 C-89.27732832 257.1243423 -86.59136595 259.61346775 -83.91796875 262.1171875 C-83.37688477 262.62088867 -82.83580078 263.12458984 -82.27832031 263.64355469 C-81.238808 264.61159654 -80.20283167 265.58345317 -79.17089844 266.55957031 C-76.85200032 268.71317343 -75.29628831 269.98457056 -72.25 271 C-72.25 271.66 -72.25 272.32 -72.25 273 C-70.87042584 274.43467016 -70.87042584 274.43467016 -69 275.9375 C-65.43226561 278.97133047 -61.9444568 282.07751818 -58.5 285.25 C-57.74553589 285.94186401 -57.74553589 285.94186401 -56.97583008 286.64770508 C-54.27732832 289.1243423 -51.59136595 291.61346775 -48.91796875 294.1171875 C-48.37688477 294.62088867 -47.83580078 295.12458984 -47.27832031 295.64355469 C-46.238808 296.61159654 -45.20283167 297.58345317 -44.17089844 298.55957031 C-41.85200032 300.71317343 -40.29628831 301.98457056 -37.25 303 C-37.25 303.66 -37.25 304.32 -37.25 305 C-35.70224002 306.60480279 -35.70224002 306.60480279 -33.6875 308.25 C-33.02621094 308.81203125 -32.36492187 309.3740625 -31.68359375 309.953125 C-29.45841527 311.95553622 -29.45841527 311.95553622 -27.50903225 312.97208595 C-25.19988601 314.45485897 -23.82007297 315.73108366 -22.25 318 C-21.20242728 323.10726839 -21.36463809 328.18368919 -21.45532227 333.36865234 C-21.45729797 334.94587109 -21.45618613 336.52309627 -21.45222473 338.10031128 C-21.45021881 342.37311361 -21.49132968 346.64453634 -21.54024243 350.91701841 C-21.58404519 355.38525081 -21.58811695 359.85351596 -21.59642029 364.32192993 C-21.6181645 372.77936768 -21.67559026 381.23617093 -21.74586672 389.69332945 C-21.82414835 399.32318348 -21.86260623 408.95306804 -21.89773476 418.58316112 C-21.97087414 438.38912802 -22.09397377 458.19452402 -22.25 478 C-22.73715988 477.54051468 -23.22431976 477.08102936 -23.72624207 476.60762024 C-25.95631413 474.50480588 -28.18713517 472.40278771 -30.41796875 470.30078125 C-31.18427612 469.57797974 -31.9505835 468.85517822 -32.7401123 468.11047363 C-37.39883972 463.722035 -42.09424297 459.38846693 -46.87109375 455.12890625 C-49.64218445 452.64903033 -52.38577991 450.13993084 -55.125 447.625 C-55.62813721 447.16311279 -56.13127441 446.70122559 -56.6496582 446.2253418 C-57.67247259 445.28608907 -58.69517709 444.34671667 -59.71777344 443.40722656 C-62.22677106 441.10291453 -64.73847057 438.80155179 -67.25 436.5 C-70.27482361 433.72806824 -73.29900597 430.95545292 -76.3203125 428.1796875 C-80.92349765 423.95233249 -85.53413776 419.73473917 -90.1875 415.5625 C-95.15238091 411.10602289 -100.05134952 406.58051938 -104.94921875 402.05078125 C-111.6578422 395.84683239 -118.3846369 389.66313207 -125.1875 383.5625 C-130.15238091 379.10602289 -135.05134952 374.58051938 -139.94921875 370.05078125 C-146.6578422 363.84683239 -153.3846369 357.66313207 -160.1875 351.5625 C-165.15238091 347.10602289 -170.05134952 342.58051938 -174.94921875 338.05078125 C-181.6578422 331.84683239 -188.3846369 325.66313207 -195.1875 319.5625 C-200.15238091 315.10602289 -205.05134952 310.58051938 -209.94921875 306.05078125 C-216.6578422 299.84683239 -223.3846369 293.66313207 -230.1875 287.5625 C-235.15238091 283.10602289 -240.05134952 278.58051938 -244.94921875 274.05078125 C-251.6578422 267.84683239 -258.3846369 261.66313207 -265.1875 255.5625 C-270.15238091 251.10602289 -275.05134952 246.58051938 -279.94921875 242.05078125 C-287.45370354 235.11084189 -294.99335314 228.2120992 -302.609375 221.39453125 C-304.59436328 219.59453448 -306.56050047 217.78115454 -308.515625 215.94921875 C-309.08289307 215.4193335 -309.65016113 214.88944824 -310.23461914 214.34350586 C-311.33343976 213.31526182 -312.42921735 212.28375159 -313.52124023 211.24829102 C-317.21486466 207.79622417 -321.08642964 204.86998309 -325.25 202 C-325.08564453 203.71703125 -325.08564453 203.71703125 -324.91796875 205.46875 C-323.89894887 216.13171257 -322.88857109 226.79549537 -321.88540649 237.45996094 C-321.75507547 238.84458483 -321.62452684 240.22918825 -321.4937439 241.61376953 C-321.30639246 243.59792194 -321.1199856 245.58216347 -320.93359375 247.56640625 C-320.82587646 248.71052979 -320.71815918 249.85465332 -320.60717773 251.03344727 C-320.48930908 252.34240967 -320.37144043 253.65137207 -320.25 255 C-320.16364792 255.76692169 -320.07729584 256.53384338 -319.98832703 257.32400513 C-318.8806327 268.20226544 -319.12528563 279.12644114 -319.15234375 290.046875 C-319.15421179 292.27174854 -319.15563387 294.49662249 -319.15663147 296.72149658 C-319.16042625 302.54106813 -319.17023018 308.36061421 -319.18133545 314.18017578 C-319.19161532 320.13313452 -319.1961431 326.08609742 -319.20117188 332.0390625 C-319.21185552 343.69271944 -319.22889492 355.34635759 -319.25 367 C-318.59 367 -317.93 367 -317.25 367 C-317.25 367.66 -317.25 368.32 -317.25 369 C-315.87042584 370.43467016 -315.87042584 370.43467016 -314 371.9375 C-310.43226561 374.97133047 -306.9444568 378.07751818 -303.5 381.25 C-302.99702393 381.71124268 -302.49404785 382.17248535 -301.97583008 382.64770508 C-299.27732832 385.1243423 -296.59136595 387.61346775 -293.91796875 390.1171875 C-293.37688477 390.62088867 -292.83580078 391.12458984 -292.27832031 391.64355469 C-291.238808 392.61159654 -290.20283167 393.58345317 -289.17089844 394.55957031 C-286.85200032 396.71317343 -285.29628831 397.98457056 -282.25 399 C-282.25 399.66 -282.25 400.32 -282.25 401 C-280.87042584 402.43467016 -280.87042584 402.43467016 -279 403.9375 C-275.43226561 406.97133047 -271.9444568 410.07751818 -268.5 413.25 C-267.99702393 413.71124268 -267.49404785 414.17248535 -266.97583008 414.64770508 C-264.27732832 417.1243423 -261.59136595 419.61346775 -258.91796875 422.1171875 C-258.37688477 422.62088867 -257.83580078 423.12458984 -257.27832031 423.64355469 C-256.238808 424.61159654 -255.20283167 425.58345317 -254.17089844 426.55957031 C-251.85200032 428.71317343 -250.29628831 429.98457056 -247.25 431 C-247.25 431.66 -247.25 432.32 -247.25 433 C-245.87042584 434.43467016 -245.87042584 434.43467016 -244 435.9375 C-240.43226561 438.97133047 -236.9444568 442.07751818 -233.5 445.25 C-232.99702393 445.71124268 -232.49404785 446.17248535 -231.97583008 446.64770508 C-229.27732832 449.1243423 -226.59136595 451.61346775 -223.91796875 454.1171875 C-223.37688477 454.62088867 -222.83580078 455.12458984 -222.27832031 455.64355469 C-221.238808 456.61159654 -220.20283167 457.58345317 -219.17089844 458.55957031 C-216.85200032 460.71317343 -215.29628831 461.98457056 -212.25 463 C-212.25 463.66 -212.25 464.32 -212.25 465 C-210.87042584 466.43467016 -210.87042584 466.43467016 -209 467.9375 C-205.43226561 470.97133047 -201.9444568 474.07751818 -198.5 477.25 C-197.99702393 477.71124268 -197.49404785 478.17248535 -196.97583008 478.64770508 C-194.27732832 481.1243423 -191.59136595 483.61346775 -188.91796875 486.1171875 C-188.37688477 486.62088867 -187.83580078 487.12458984 -187.27832031 487.64355469 C-186.238808 488.61159654 -185.20283167 489.58345317 -184.17089844 490.55957031 C-181.85200032 492.71317343 -180.29628831 493.98457056 -177.25 495 C-177.25 495.66 -177.25 496.32 -177.25 497 C-175.87042584 498.43467016 -175.87042584 498.43467016 -174 499.9375 C-170.43226561 502.97133047 -166.9444568 506.07751818 -163.5 509.25 C-162.99702393 509.71124268 -162.49404785 510.17248535 -161.97583008 510.64770508 C-159.27732832 513.1243423 -156.59136595 515.61346775 -153.91796875 518.1171875 C-153.37688477 518.62088867 -152.83580078 519.12458984 -152.27832031 519.64355469 C-151.238808 520.61159654 -150.20283167 521.58345317 -149.17089844 522.55957031 C-146.85200032 524.71317343 -145.29628831 525.98457056 -142.25 527 C-142.25 527.66 -142.25 528.32 -142.25 529 C-140.87042584 530.43467016 -140.87042584 530.43467016 -139 531.9375 C-135.43226561 534.97133047 -131.9444568 538.07751818 -128.5 541.25 C-127.99702393 541.71124268 -127.49404785 542.17248535 -126.97583008 542.64770508 C-124.27732832 545.1243423 -121.59136595 547.61346775 -118.91796875 550.1171875 C-118.37688477 550.62088867 -117.83580078 551.12458984 -117.27832031 551.64355469 C-116.238808 552.61159654 -115.20283167 553.58345317 -114.17089844 554.55957031 C-111.85200032 556.71317343 -110.29628831 557.98457056 -107.25 559 C-107.25 559.66 -107.25 560.32 -107.25 561 C-105.87042584 562.43467016 -105.87042584 562.43467016 -104 563.9375 C-100.43226561 566.97133047 -96.9444568 570.07751818 -93.5 573.25 C-92.99702393 573.71124268 -92.49404785 574.17248535 -91.97583008 574.64770508 C-89.27732832 577.1243423 -86.59136595 579.61346775 -83.91796875 582.1171875 C-83.37688477 582.62088867 -82.83580078 583.12458984 -82.27832031 583.64355469 C-81.238808 584.61159654 -80.20283167 585.58345317 -79.17089844 586.55957031 C-76.85200032 588.71317343 -75.29628831 589.98457056 -72.25 591 C-72.25 591.66 -72.25 592.32 -72.25 593 C-70.87042584 594.43467016 -70.87042584 594.43467016 -69 595.9375 C-65.43226561 598.97133047 -61.9444568 602.07751818 -58.5 605.25 C-57.74553589 605.94186401 -57.74553589 605.94186401 -56.97583008 606.64770508 C-54.27732832 609.1243423 -51.59136595 611.61346775 -48.91796875 614.1171875 C-48.37688477 614.62088867 -47.83580078 615.12458984 -47.27832031 615.64355469 C-46.238808 616.61159654 -45.20283167 617.58345317 -44.17089844 618.55957031 C-41.85200032 620.71317343 -40.29628831 621.98457056 -37.25 623 C-37.25 623.66 -37.25 624.32 -37.25 625 C-35.70224002 626.60480279 -35.70224002 626.60480279 -33.6875 628.25 C-33.02621094 628.81203125 -32.36492187 629.3740625 -31.68359375 629.953125 C-29.44751786 631.94667277 -29.44751786 631.94667277 -27.50903225 633.0334034 C-24.23374374 635.22047974 -22.50389572 636.88331495 -21.61381721 640.79806137 C-21.38626716 644.42424158 -21.38482471 647.99168728 -21.45532227 651.62451172 C-21.4572984 653.0145406 -21.45618528 654.40457679 -21.45222473 655.79460144 C-21.45022043 659.55716743 -21.49130293 663.31816376 -21.54024243 667.08036566 C-21.58407341 671.01607089 -21.58811913 674.95181419 -21.59642029 678.88772583 C-21.61815639 686.33585013 -21.67557054 693.78325313 -21.74586672 701.23106015 C-21.82417413 709.71219335 -21.8626126 718.19336144 -21.89773476 726.6747663 C-21.97085568 744.11692773 -22.09393872 761.55838754 -22.25 779 C-19.16593147 778.36312466 -19.16593147 778.36312466 -18.33203125 776.18359375 C-17.79642578 775.10271484 -17.79642578 775.10271484 -17.25 774 C-15.26171875 772.03515625 -15.26171875 772.03515625 -12.9375 770.0625 C-9.55206946 767.1713768 -6.39069285 764.15512176 -3.25 761 C-1.42617227 759.30223095 0.40775114 757.61526235 2.25 755.9375 C5.53930026 752.94109675 8.82247356 749.9398217 12.0703125 746.8984375 C17.5773407 741.74830115 23.10849935 736.74320918 29.05859375 732.1015625 C31.06900353 730.53175051 33.05723635 728.9457272 35.03515625 727.3359375 C61.60928966 705.75170687 90.19005292 686.7330298 118.5625 667.625 C143.08577671 651.24093597 143.08577671 651.24093597 167.1875 634.25 C167.92355469 633.71544189 168.65960937 633.18088379 169.41796875 632.63012695 C195.12656718 613.91891911 220.81336768 593.96474241 240.75 569 C241.73806641 567.81277344 241.73806641 567.81277344 242.74609375 566.6015625 C252.56878969 554.7036491 260.26626973 541.96550982 266.75 528 C267.28367187 526.88367188 267.81734375 525.76734375 268.3671875 524.6171875 C285.40831795 487.26797413 285.09747377 445.05482097 280.00074768 405.08171082 C273.19572145 348.58628618 273.34301003 287.50369466 279.75 231 C279.82496704 230.32104675 279.89993408 229.64209351 279.97717285 228.94256592 C281.01282489 219.5935639 282.28974607 210.29206126 283.75 201 C283.94352051 199.75379883 284.13704102 198.50759766 284.33642578 197.22363281 C286.58357433 182.95723207 289.21610459 168.96715853 293.17675781 155.07617188 C293.92335695 152.3721348 294.57019895 149.64901424 295.21582031 146.91943359 C298.44747443 133.34046459 302.9193282 120.2084857 308.65356445 107.48071289 C309.79397708 104.86499697 310.72167843 102.54359134 310.87109375 99.67578125 C308.98972706 96.86356414 305.98519321 96.40993202 302.875 95.5625 C302.16537109 95.35496094 301.45574219 95.14742188 300.72460938 94.93359375 C294.45164528 93.12418969 288.12585991 91.49661654 281.80322266 89.87084961 C276.89750444 88.60076873 272.07259983 87.188258 267.25 85.625 C258.78767518 82.88394741 250.17846976 80.72918474 241.56323242 78.52709961 C234.47476063 76.71390897 227.42961195 74.817003 220.40625 72.765625 C216.87458006 71.74767308 213.31911089 70.87765022 209.75 70 C208.05749964 69.54178272 206.36619472 69.07913836 204.67578125 68.61328125 C199.17176509 67.10680878 193.65094538 65.67342389 188.125 64.25 C179.67675173 62.06455656 171.26969287 59.75739015 162.875 57.375 C155.21150703 55.20284666 147.54953843 53.17326263 139.78100586 51.4152832 C134.78872832 50.27573499 129.8641388 48.95751723 124.9375 47.5625 C116.15349 45.07839222 107.31700504 42.85143881 98.45410156 40.66796875 C93.63332448 39.47713758 88.81702207 38.26841199 84 37.0625 C81.96745727 36.55465008 79.93490512 36.04683783 77.90234375 35.5390625 C73.81038436 34.51623511 69.7193231 33.48991562 65.62890625 32.4609375 C55.1492071 29.82755564 44.6613303 27.24163509 34.14453125 24.76025391 C28.77155598 23.49037187 23.41391336 22.17013086 18.0625 20.8125 C9.25895979 18.60051058 0.48751384 16.90467497 -8.48828125 15.5625 C-11.25 15 -11.25 15 -13.85546875 13.9375 C-16.44219796 12.75695255 -16.44219796 12.75695255 -20.25 13 Z " fill="#123545" transform="translate(382.25,7)"/>
<path d="M0 0 C0 0.66 0 1.32 0 2 C0.58249512 2.26031006 1.16499023 2.52062012 1.76513672 2.78881836 C4.15071338 4.08167895 5.80330267 5.50242627 7.7578125 7.37890625 C8.46139893 8.04897705 9.16498535 8.71904785 9.88989258 9.40942383 C10.62747803 10.11993896 11.36506348 10.8304541 12.125 11.5625 C13.65162009 13.01638524 15.1789606 14.46951441 16.70703125 15.921875 C17.4438916 16.62376953 18.18075195 17.32566406 18.93994141 18.04882812 C25.81528087 24.66956114 25.81528087 24.66956114 33.26171875 30.60546875 C33.83535156 31.06566406 34.40898437 31.52585937 35 32 C35 32.66 35 33.32 35 34 C35.87374268 34.39046509 35.87374268 34.39046509 36.76513672 34.78881836 C39.15071338 36.08167895 40.80330267 37.50242627 42.7578125 39.37890625 C43.46139893 40.04897705 44.16498535 40.71904785 44.88989258 41.40942383 C45.62747803 42.11993896 46.36506348 42.8304541 47.125 43.5625 C48.65162009 45.01638524 50.1789606 46.46951441 51.70703125 47.921875 C52.4438916 48.62376953 53.18075195 49.32566406 53.93994141 50.04882812 C60.81528087 56.66956114 60.81528087 56.66956114 68.26171875 62.60546875 C69.12216797 63.29576172 69.12216797 63.29576172 70 64 C70 64.66 70 65.32 70 66 C70.58249512 66.26031006 71.16499023 66.52062012 71.76513672 66.78881836 C74.15071338 68.08167895 75.80330267 69.50242627 77.7578125 71.37890625 C78.46139893 72.04897705 79.16498535 72.71904785 79.88989258 73.40942383 C80.99627075 74.47519653 80.99627075 74.47519653 82.125 75.5625 C83.65162009 77.01638524 85.1789606 78.46951441 86.70703125 79.921875 C87.4438916 80.62376953 88.18075195 81.32566406 88.93994141 82.04882812 C95.81528087 88.66956114 95.81528087 88.66956114 103.26171875 94.60546875 C103.83535156 95.06566406 104.40898437 95.52585937 105 96 C105 96.66 105 97.32 105 98 C105.58249512 98.26031006 106.16499023 98.52062012 106.76513672 98.78881836 C109.15071338 100.08167895 110.80330267 101.50242627 112.7578125 103.37890625 C113.46139893 104.04897705 114.16498535 104.71904785 114.88989258 105.40942383 C115.99627075 106.47519653 115.99627075 106.47519653 117.125 107.5625 C118.65162009 109.01638524 120.1789606 110.46951441 121.70703125 111.921875 C122.4438916 112.62376953 123.18075195 113.32566406 123.93994141 114.04882812 C130.81528087 120.66956114 130.81528087 120.66956114 138.26171875 126.60546875 C138.83535156 127.06566406 139.40898437 127.52585937 140 128 C140 128.66 140 129.32 140 130 C140.58249512 130.26031006 141.16499023 130.52062012 141.76513672 130.78881836 C144.15071338 132.08167895 145.80330267 133.50242627 147.7578125 135.37890625 C148.46139893 136.04897705 149.16498535 136.71904785 149.88989258 137.40942383 C150.62747803 138.11993896 151.36506348 138.8304541 152.125 139.5625 C153.65162009 141.01638524 155.1789606 142.46951441 156.70703125 143.921875 C157.4438916 144.62376953 158.18075195 145.32566406 158.93994141 146.04882812 C165.81528087 152.66956114 165.81528087 152.66956114 173.26171875 158.60546875 C173.83535156 159.06566406 174.40898437 159.52585938 175 160 C175 160.66 175 161.32 175 162 C175.58249512 162.26031006 176.16499023 162.52062012 176.76513672 162.78881836 C179.15071338 164.08167895 180.80330267 165.50242627 182.7578125 167.37890625 C183.46139893 168.04897705 184.16498535 168.71904785 184.88989258 169.40942383 C185.62747803 170.11993896 186.36506348 170.8304541 187.125 171.5625 C188.65162009 173.01638524 190.1789606 174.46951441 191.70703125 175.921875 C192.4438916 176.62376953 193.18075195 177.32566406 193.93994141 178.04882812 C200.81528087 184.66956114 200.81528087 184.66956114 208.26171875 190.60546875 C208.83535156 191.06566406 209.40898437 191.52585937 210 192 C210 192.66 210 193.32 210 194 C210.58249512 194.26031006 211.16499023 194.52062012 211.76513672 194.78881836 C214.15071338 196.08167895 215.80330267 197.50242627 217.7578125 199.37890625 C218.46139893 200.04897705 219.16498535 200.71904785 219.88989258 201.40942383 C220.62747803 202.11993896 221.36506348 202.8304541 222.125 203.5625 C223.65162009 205.01638524 225.1789606 206.46951441 226.70703125 207.921875 C227.4438916 208.62376953 228.18075195 209.32566406 228.93994141 210.04882812 C235.81528087 216.66956114 235.81528087 216.66956114 243.26171875 222.60546875 C243.83535156 223.06566406 244.40898437 223.52585937 245 224 C245 224.66 245 225.32 245 226 C245.53284985 226.23464557 246.06569969 226.46929113 246.6146965 226.71104717 C253.24243832 230.29249774 259.83864362 235.1911737 262.09127045 242.57896996 C262.47417019 246.77605451 262.48917543 250.8226141 262.36230469 255.02807617 C262.35891322 256.61588278 262.36083268 258.20370816 262.36761475 259.79150391 C262.37103659 264.07132197 262.3008601 268.34704533 262.21672726 272.6259172 C262.14134026 277.10865713 262.1346339 281.5915073 262.12042236 286.07478333 C262.0832313 294.55035658 261.98490969 303.02405636 261.86422849 311.49880725 C261.72976073 321.15278463 261.66403696 330.80685495 261.60388327 340.46153677 C261.47869516 360.30873397 261.26783931 380.15424863 261 400 C258.66666667 398 256.33333333 396 254 394 C253.38705078 393.47535156 252.77410156 392.95070313 252.14257812 392.41015625 C246.77759736 387.80431069 241.64668026 382.95096837 236.49023438 378.11523438 C233.3682249 375.19243587 230.24365034 372.28840117 227 369.5 C222.41810765 365.55837208 218.04466585 361.39263874 213.63549805 357.26049805 C209.28540665 353.18787604 204.89137841 349.171464 200.44921875 345.19921875 C196.11123675 341.30402917 191.82547426 337.3515627 187.53222656 333.40722656 C185.02322894 331.10291453 182.51152943 328.80155179 180 326.5 C176.97517639 323.72806824 173.95099403 320.95545292 170.9296875 318.1796875 C166.32650235 313.95233249 161.71586224 309.73473917 157.0625 305.5625 C152.09761909 301.10602289 147.19865048 296.58051938 142.30078125 292.05078125 C135.5921578 285.84683239 128.8653631 279.66313207 122.0625 273.5625 C117.09761909 269.10602289 112.19865048 264.58051938 107.30078125 260.05078125 C100.5921578 253.84683239 93.8653631 247.66313207 87.0625 241.5625 C82.09761909 237.10602289 77.19865048 232.58051938 72.30078125 228.05078125 C65.5921578 221.84683239 58.8653631 215.66313207 52.0625 209.5625 C47.09761909 205.10602289 42.19865048 200.58051938 37.30078125 196.05078125 C30.5921578 189.84683239 23.8653631 183.66313207 17.0625 177.5625 C12.09761909 173.10602289 7.19865048 168.58051938 2.30078125 164.05078125 C-4.4078422 157.84683239 -11.1346369 151.66313207 -17.9375 145.5625 C-20.7322902 143.05620427 -23.51079425 140.5344332 -26.265625 137.984375 C-26.82918701 137.46286865 -27.39274902 136.9413623 -27.97338867 136.40405273 C-29.10926633 135.34939009 -30.24228557 134.29163988 -31.37231445 133.23071289 C-34.18164284 130.60718776 -36.99661109 128.24212228 -40.125 126 C-44.63288536 122.09021245 -45.03424282 116.63265318 -46 111 C-46.31890815 109.17576337 -46.63792787 107.35154624 -46.95703125 105.52734375 C-47.47401082 102.56189485 -47.98432306 99.59639474 -48.4675293 96.62524414 C-50.31268314 85.45942747 -53.30941703 74.65908884 -56.5 63.8125 C-56.79519531 62.79736328 -57.09039062 61.78222656 -57.39453125 60.73632812 C-60.19407957 51.17223244 -63.35231986 41.91191024 -67.125 32.6875 C-67.83838036 30.94240288 -68.54941131 29.19634303 -69.2578125 27.44921875 C-69.5686377 26.68955811 -69.87946289 25.92989746 -70.19970703 25.1472168 C-70.95776326 23.1133228 -71.51964669 21.11481392 -72 19 C-71.28714844 18.80664062 -70.57429688 18.61328125 -69.83984375 18.4140625 C-68.40318359 18.02347656 -68.40318359 18.02347656 -66.9375 17.625 C-65.99777344 17.36976562 -65.05804688 17.11453125 -64.08984375 16.8515625 C-61.43215635 16.11910251 -58.78100273 15.36695683 -56.13110352 14.60693359 C-50.14758421 12.90284046 -44.15190147 11.24129176 -38.16015625 9.56640625 C-31.73992777 7.77074774 -31.73992777 7.77074774 -25.328125 5.9453125 C-20.98036014 4.71038398 -16.61795742 3.53618806 -12.25 2.375 C-11.40050781 2.14554687 -10.55101562 1.91609375 -9.67578125 1.6796875 C-8.85980469 1.463125 -8.04382813 1.2465625 -7.203125 1.0234375 C-6.46739258 0.82669434 -5.73166016 0.62995117 -4.97363281 0.42724609 C-3 0 -3 0 0 0 Z " fill="#B61C1C" transform="translate(100,86)"/>
<path d="M0 0 C0.33 0.66 0.66 1.32 1 2 C1.66 2 2.32 2 3 2 C3 2.66 3 3.32 3 4 C3.58249512 4.26031006 4.16499023 4.52062012 4.76513672 4.78881836 C7.15071338 6.08167895 8.80330267 7.50242627 10.7578125 9.37890625 C11.46139893 10.04897705 12.16498535 10.71904785 12.88989258 11.40942383 C13.62747803 12.11993896 14.36506348 12.8304541 15.125 13.5625 C16.65162009 15.01638524 18.1789606 16.46951441 19.70703125 17.921875 C20.4438916 18.62376953 21.18075195 19.32566406 21.93994141 20.04882812 C28.81528087 26.66956114 28.81528087 26.66956114 36.26171875 32.60546875 C36.83535156 33.06566406 37.40898438 33.52585937 38 34 C38 34.66 38 35.32 38 36 C38.58249512 36.26031006 39.16499023 36.52062012 39.76513672 36.78881836 C42.15071338 38.08167895 43.80330267 39.50242627 45.7578125 41.37890625 C46.46139893 42.04897705 47.16498535 42.71904785 47.88989258 43.40942383 C48.62747803 44.11993896 49.36506348 44.8304541 50.125 45.5625 C51.65162009 47.01638524 53.1789606 48.46951441 54.70703125 49.921875 C55.4438916 50.62376953 56.18075195 51.32566406 56.93994141 52.04882812 C63.81528087 58.66956114 63.81528087 58.66956114 71.26171875 64.60546875 C71.83535156 65.06566406 72.40898437 65.52585937 73 66 C73 66.66 73 67.32 73 68 C73.58249512 68.26031006 74.16499023 68.52062012 74.76513672 68.78881836 C77.15071338 70.08167895 78.80330267 71.50242627 80.7578125 73.37890625 C81.46139893 74.04897705 82.16498535 74.71904785 82.88989258 75.40942383 C83.62747803 76.11993896 84.36506348 76.8304541 85.125 77.5625 C86.65162009 79.01638524 88.1789606 80.46951441 89.70703125 81.921875 C90.4438916 82.62376953 91.18075195 83.32566406 91.93994141 84.04882812 C98.81528087 90.66956114 98.81528087 90.66956114 106.26171875 96.60546875 C106.83535156 97.06566406 107.40898437 97.52585937 108 98 C108 98.66 108 99.32 108 100 C108.58249512 100.26031006 109.16499023 100.52062012 109.76513672 100.78881836 C112.15071338 102.08167895 113.80330267 103.50242627 115.7578125 105.37890625 C116.46139893 106.04897705 117.16498535 106.71904785 117.88989258 107.40942383 C118.62747803 108.11993896 119.36506348 108.8304541 120.125 109.5625 C121.65162009 111.01638524 123.1789606 112.46951441 124.70703125 113.921875 C125.4438916 114.62376953 126.18075195 115.32566406 126.93994141 116.04882812 C133.81528087 122.66956114 133.81528087 122.66956114 141.26171875 128.60546875 C141.83535156 129.06566406 142.40898437 129.52585937 143 130 C143 130.66 143 131.32 143 132 C143.58249512 132.26031006 144.16499023 132.52062012 144.76513672 132.78881836 C147.15071338 134.08167895 148.80330267 135.50242627 150.7578125 137.37890625 C151.46139893 138.04897705 152.16498535 138.71904785 152.88989258 139.40942383 C153.62747803 140.11993896 154.36506348 140.8304541 155.125 141.5625 C156.65162009 143.01638524 158.1789606 144.46951441 159.70703125 145.921875 C160.4438916 146.62376953 161.18075195 147.32566406 161.93994141 148.04882812 C168.81528087 154.66956114 168.81528087 154.66956114 176.26171875 160.60546875 C176.83535156 161.06566406 177.40898437 161.52585937 178 162 C178 162.66 178 163.32 178 164 C178.58249512 164.26031006 179.16499023 164.52062012 179.76513672 164.78881836 C182.15071338 166.08167895 183.80330267 167.50242627 185.7578125 169.37890625 C186.46139893 170.04897705 187.16498535 170.71904785 187.88989258 171.40942383 C188.62747803 172.11993896 189.36506348 172.8304541 190.125 173.5625 C191.65162009 175.01638524 193.1789606 176.46951441 194.70703125 177.921875 C195.4438916 178.62376953 196.18075195 179.32566406 196.93994141 180.04882812 C203.81528087 186.66956114 203.81528087 186.66956114 211.26171875 192.60546875 C211.83535156 193.06566406 212.40898437 193.52585937 213 194 C213 194.66 213 195.32 213 196 C213.58249512 196.26031006 214.16499023 196.52062012 214.76513672 196.78881836 C217.15071338 198.08167895 218.80330267 199.50242627 220.7578125 201.37890625 C221.46139893 202.04897705 222.16498535 202.71904785 222.88989258 203.40942383 C223.62747803 204.11993896 224.36506348 204.8304541 225.125 205.5625 C226.65162009 207.01638524 228.1789606 208.46951441 229.70703125 209.921875 C230.4438916 210.62376953 231.18075195 211.32566406 231.93994141 212.04882812 C238.81528087 218.66956114 238.81528087 218.66956114 246.26171875 224.60546875 C246.83535156 225.06566406 247.40898437 225.52585937 248 226 C248 226.66 248 227.32 248 228 C248.58249512 228.26031006 249.16499023 228.52062012 249.76513672 228.78881836 C252.15071338 230.08167895 253.80330267 231.50242627 255.7578125 233.37890625 C256.46139893 234.04897705 257.16498535 234.71904785 257.88989258 235.40942383 C258.62747803 236.11993896 259.36506348 236.8304541 260.125 237.5625 C261.65162009 239.01638524 263.1789606 240.46951441 264.70703125 241.921875 C265.4438916 242.62376953 266.18075195 243.32566406 266.93994141 244.04882812 C273.81528087 250.66956114 273.81528087 250.66956114 281.26171875 256.60546875 C281.83535156 257.06566406 282.40898437 257.52585937 283 258 C283 258.66 283 259.32 283 260 C283.53260437 260.25484665 284.06520874 260.5096933 284.61395264 260.77226257 C285.40134827 261.17741592 286.1887439 261.58256927 287 262 C287.98156067 262.49075516 288.96312134 262.98151031 289.97442627 263.48713684 C295.00943933 266.87804785 298.30404132 269.90086501 299.67259216 275.99508286 C300.65926756 284.76014463 300.41631327 293.58261819 300.21672726 302.38540626 C300.14124116 306.27953968 300.13462642 310.17380557 300.12042236 314.06855774 C300.08325911 321.4286663 299.98497928 328.78661257 299.86422849 336.14577276 C299.72967044 344.53008378 299.66401502 352.91450316 299.60388327 361.29962671 C299.47875876 378.53433117 299.26796235 395.76693632 299 413 C298.34 413.33 297.68 413.66 297 414 C296.66226562 413.50628906 296.32453125 413.01257813 295.9765625 412.50390625 C295.53054688 411.86324219 295.08453125 411.22257812 294.625 410.5625 C294.18414062 409.92441406 293.74328125 409.28632812 293.2890625 408.62890625 C292.07839147 406.86259072 292.07839147 406.86259072 290 406 C290 405.34 290 404.68 290 404 C289.34 404 288.68 404 288 404 C288 403.34 288 402.68 288 402 C287.34 402 286.68 402 286 402 C283.375 399.625 283.375 399.625 281 397 C281 396.34 281 395.68 281 395 C280.34 395 279.68 395 279 395 C279 394.34 279 393.68 279 393 C278.34 393 277.68 393 277 393 C274.44649613 390.58452337 272.04553422 388.04793075 269.625 385.5 C267.10531728 383.10030217 264.54571645 381.22204231 261.6953125 379.25390625 C259.21189901 377.41709581 257.15195551 375.20858592 255 373 C254.071875 372.278125 253.14375 371.55625 252.1875 370.8125 C251.465625 370.214375 250.74375 369.61625 250 369 C250 368.34 250 367.68 250 367 C249.40920654 366.72309326 248.81841309 366.44618652 248.2097168 366.16088867 C246.12694934 365.06669364 244.46421132 363.90651959 242.64453125 362.42578125 C242.02602295 361.92594727 241.40751465 361.42611328 240.77026367 360.91113281 C240.12420166 360.38358398 239.47813965 359.85603516 238.8125 359.3125 C237.47160241 358.23016114 236.13045726 357.14812889 234.7890625 356.06640625 C233.81694824 355.27967529 233.81694824 355.27967529 232.82519531 354.47705078 C230.45379453 352.55797979 228.07760937 350.64573821 225.6875 348.75 C225.01074219 348.20859375 224.33398438 347.6671875 223.63671875 347.109375 C222.05361994 345.81297782 222.05361994 345.81297782 220 346 C218.33333333 344.33333333 216.66666667 342.66666667 215 341 C211.78381671 338.44825897 208.91463979 336.30487993 205 335 C203.66373305 333.66960675 202.3309921 332.33567046 201 331 C198.83168752 329.38933093 196.66559385 327.83381943 194.4375 326.3125 C193.86064453 325.90966797 193.28378906 325.50683594 192.68945312 325.09179688 C190.13881631 323.33547602 187.95446787 321.98482262 185 321 C183.65468277 319.67875926 182.32276822 318.34381538 181 317 C179.40254072 315.82057682 177.77383818 314.68264519 176.12109375 313.58203125 C175.20005859 312.96779297 174.27902344 312.35355469 173.33007812 311.72070312 C172.37552734 311.09099609 171.42097656 310.46128906 170.4375 309.8125 C168.99987305 308.85053711 168.99987305 308.85053711 167.53320312 307.86914062 C162.5149314 304.44231583 162.5149314 304.44231583 157 302 C157 301.34 157 300.68 157 300 C156.27296875 299.731875 155.5459375 299.46375 154.796875 299.1875 C152.0393304 298.01669894 149.73364414 296.66687526 147.25 295 C146.08210938 294.2265625 146.08210938 294.2265625 144.890625 293.4375 C143 292 143 292 142 290 C141.071875 289.71125 140.14375 289.4225 139.1875 289.125 C136 288 136 288 134.3359375 286.296875 C131.04056598 283.05661002 127.27478647 280.68164291 123.4375 278.125 C101.61979739 263.38632249 78.89981438 247.63667877 60.5703125 228.5703125 C58.79397233 226.79397233 56.91585411 225.18696946 55 223.5625 C51.61884003 220.64211231 48.69767757 217.53393259 45.8203125 214.12109375 C44.60407183 212.70388628 43.34769643 211.32018965 42.0546875 209.97265625 C28.79164303 196.04890661 17.40330317 178.74036212 10 161 C9.53980469 159.9584375 9.07960938 158.916875 8.60546875 157.84375 C-6.1173823 123.12540151 -7.43589801 85.64926399 -3.21508789 48.6574707 C-2.01485877 37.99403264 -1.3557232 27.33969809 -0.8125 16.625 C-0.74872162 15.37281677 -0.74872162 15.37281677 -0.68365479 14.09533691 C-0.4462766 9.39731914 -0.21880098 4.69891808 0 0 Z " fill="#B61C1C" transform="translate(62,372)"/>
<path d="M0 0 C2.67216869 5.17632677 5.341353 10.35417722 8.0078125 15.53344727 C8.9148757 17.2942837 9.82274557 19.05470483 10.73144531 20.81469727 C12.03924683 23.34802614 13.34411721 25.88284612 14.6484375 28.41796875 C15.25635635 29.59325386 15.25635635 29.59325386 15.8765564 30.7922821 C16.25679962 31.53267227 16.63704285 32.27306244 17.02880859 33.03588867 C17.36190033 33.68208664 17.69499207 34.32828461 18.03817749 34.99406433 C19.13438464 37.28026682 20.05836592 39.64591479 21 42 C34.2 42 47.4 42 61 42 C61.66 40.35 62.32 38.7 63 37 C63.75575493 35.4003797 64.53000989 33.80939932 65.3203125 32.2265625 C65.99453247 30.87522217 65.99453247 30.87522217 66.68237305 29.49658203 C67.15843994 28.54895996 67.63450684 27.60133789 68.125 26.625 C68.61202393 25.65288574 69.09904785 24.68077148 69.60083008 23.67919922 C73.60604252 15.71605672 77.74294989 7.83102055 82 0 C86.50802601 1.25805377 89.4912812 2.90407165 93 6 C87.18673799 17.77266748 81.11778822 29.37620239 75 41 C92.82 41.33 110.64 41.66 129 42 C129 54.21 129 66.42 129 79 C132.96 79 136.92 79 141 79 C141 99.46 141 119.92 141 141 C137.04 141 133.08 141 129 141 C129 153.21 129 165.42 129 178 C70.92 178 12.84 178 -47 178 C-47 165.79 -47 153.58 -47 141 C-50.96 141 -54.92 141 -59 141 C-59 120.54 -59 100.08 -59 79 C-55.04 79 -51.08 79 -47 79 C-47 66.79 -47 54.58 -47 42 C-20.27 41.505 -20.27 41.505 7 41 C1.8270074 31.02175068 1.8270074 31.02175068 -3.35107422 21.04614258 C-4.00246196 19.78736698 -4.65367782 18.52850241 -5.3046875 17.26953125 C-5.80754272 16.30388245 -5.80754272 16.30388245 -6.32055664 15.31872559 C-8.06628613 11.93710588 -9.66046802 8.56315506 -11 5 C-9.54462432 4.16151196 -8.08559627 3.32936066 -6.625 2.5 C-5.40683594 1.80390625 -5.40683594 1.80390625 -4.1640625 1.09375 C-2 0 -2 0 0 0 Z " fill="#FBFBFB" transform="translate(479,294)"/>
<path d="M0 0 C0 48.51 0 97.02 0 147 C-8.56484644 139.65870305 -16.90546235 132.10449363 -25.18212891 124.44287109 C-28.43276627 121.43677183 -31.70254196 118.454865 -35 115.5 C-39.94590436 111.06629286 -44.82286654 106.5605658 -49.69921875 102.05078125 C-56.4078422 95.84683239 -63.1346369 89.66313207 -69.9375 83.5625 C-74.90238091 79.10602289 -79.80134952 74.58051938 -84.69921875 70.05078125 C-92.20033413 63.11395783 -99.73927631 56.22152382 -107.34765625 49.40234375 C-109.36745606 47.57292271 -111.37378579 45.7326279 -113.37109375 43.87890625 C-113.95189697 43.33999756 -114.5327002 42.80108887 -115.13110352 42.24584961 C-116.26731992 41.18980303 -117.40200232 40.13210284 -118.53491211 39.07250977 C-120.74521221 37.0177253 -122.90563259 35.06590249 -125.3828125 33.3359375 C-125.91648438 32.89507812 -126.45015625 32.45421875 -127 32 C-127 31.01 -127 30.02 -127 29 C-126.39003174 28.85900879 -125.78006348 28.71801758 -125.15161133 28.57275391 C-122.37094196 27.92758577 -119.59172688 27.27635271 -116.8125 26.625 C-115.85279297 26.40328125 -114.89308594 26.1815625 -113.90429688 25.953125 C-112.97294922 25.73398437 -112.04160156 25.51484375 -111.08203125 25.2890625 C-110.22843018 25.09006348 -109.3748291 24.89106445 -108.49536133 24.68603516 C-105.90026627 23.97258079 -103.48821035 23.02001982 -101 22 C-99.48821962 21.64629055 -97.96616891 21.33409092 -96.4375 21.0625 C-91.7742743 20.17621441 -87.20077933 19.07252423 -82.6015625 17.90234375 C-77.37655079 16.5932573 -72.13435217 15.35891863 -66.89282227 14.11791992 C-61.59238853 12.8607924 -56.29617317 11.58798883 -51.00390625 10.296875 C-39.37715187 7.46223386 -27.74618327 4.65424294 -16.0625 2.0625 C-15.12809082 1.85109375 -14.19368164 1.6396875 -13.23095703 1.421875 C-12.36196777 1.23238281 -11.49297852 1.04289062 -10.59765625 0.84765625 C-9.47629272 0.6002771 -9.47629272 0.6002771 -8.33227539 0.34790039 C-6 0 -6 0 0 0 Z " fill="#B61D1D" transform="translate(362,20)"/>
<path d="M0 0 C2.67216869 5.17632677 5.341353 10.35417722 8.0078125 15.53344727 C8.9148757 17.2942837 9.82274557 19.05470483 10.73144531 20.81469727 C12.03924683 23.34802614 13.34411721 25.88284612 14.6484375 28.41796875 C15.25635635 29.59325386 15.25635635 29.59325386 15.8765564 30.7922821 C16.25679962 31.53267227 16.63704285 32.27306244 17.02880859 33.03588867 C17.36190033 33.68208664 17.69499207 34.32828461 18.03817749 34.99406433 C19.13438464 37.28026682 20.05836592 39.64591479 21 42 C34.2 42 47.4 42 61 42 C61.66 40.35 62.32 38.7 63 37 C63.75575493 35.4003797 64.53000989 33.80939932 65.3203125 32.2265625 C65.99453247 30.87522217 65.99453247 30.87522217 66.68237305 29.49658203 C67.15843994 28.54895996 67.63450684 27.60133789 68.125 26.625 C68.61202393 25.65288574 69.09904785 24.68077148 69.60083008 23.67919922 C73.60604252 15.71605672 77.74294989 7.83102055 82 0 C86.50802601 1.25805377 89.4912812 2.90407165 93 6 C87.18673799 17.77266748 81.11778822 29.37620239 75 41 C92.82 41.33 110.64 41.66 129 42 C129 54.21 129 66.42 129 79 C132.96 79 136.92 79 141 79 C141 99.46 141 119.92 141 141 C137.04 141 133.08 141 129 141 C129 153.21 129 165.42 129 178 C70.92 178 12.84 178 -47 178 C-47 165.79 -47 153.58 -47 141 C-50.96 141 -54.92 141 -59 141 C-59 120.54 -59 100.08 -59 79 C-55.04 79 -51.08 79 -47 79 C-47 66.79 -47 54.58 -47 42 C-20.27 41.505 -20.27 41.505 7 41 C1.8270074 31.02175068 1.8270074 31.02175068 -3.35107422 21.04614258 C-4.00246196 19.78736698 -4.65367782 18.52850241 -5.3046875 17.26953125 C-5.80754272 16.30388245 -5.80754272 16.30388245 -6.32055664 15.31872559 C-8.06628613 11.93710588 -9.66046802 8.56315506 -11 5 C-9.54462432 4.16151196 -8.08559627 3.32936066 -6.625 2.5 C-5.40683594 1.80390625 -5.40683594 1.80390625 -4.1640625 1.09375 C-2 0 -2 0 0 0 Z M-36 53 C-36 90.62 -36 128.24 -36 167 C14.82 167 65.64 167 118 167 C118 129.38 118 91.76 118 53 C67.18 53 16.36 53 -36 53 Z " fill="#083042" transform="translate(479,294)"/>
<path d="M0 0 C28.38 0 56.76 0 86 0 C86 11.55 86 23.1 86 35 C57.62 35 29.24 35 0 35 C0 23.45 0 11.9 0 0 Z " fill="#093042" transform="translate(477,410)"/>
<path d="M0 0 C3.006818 1.33999498 4.99762609 2.79845291 7.25 5.1875 C9.58814559 7.59441458 11.95157717 9.87972044 14.5 12.0625 C18.55934713 15.56112019 22.46650299 19.2101483 26.375 22.875 C31.38637375 27.57181633 36.43064026 32.22227501 41.55078125 36.80078125 C45.88876325 40.69597083 50.17452574 44.6484373 54.46777344 48.59277344 C56.97677106 50.89708547 59.48847057 53.19844821 62 55.5 C65.02482361 58.27193176 68.04900597 61.04454708 71.0703125 63.8203125 C75.67349765 68.04766751 80.28413776 72.26526083 84.9375 76.4375 C88.86826945 79.963166 92.75215672 83.53609114 96.625 87.125 C101.34653905 91.49942795 106.11450325 95.80821427 111 100 C110.67 100.66 110.34 101.32 110 102 C58.57758547 67.38189795 58.57758547 67.38189795 38.5703125 46.5703125 C36.79397233 44.79397233 34.91585411 43.18696946 33 41.5625 C29.62025159 38.64333151 26.69980982 35.53693727 23.82421875 32.125 C22.59578486 30.69401919 21.32576308 29.29783611 20.01953125 27.9375 C0 6.93340164 0 6.93340164 0 0 Z " fill="#FAFAFA" transform="translate(84,554)"/>
<path d="M0 0 C21.12 0 42.24 0 64 0 C64 3.96 64 7.92 64 12 C42.88 12 21.76 12 0 12 C0 8.04 0 4.08 0 0 Z " fill="#F3F3F4" transform="translate(488,421)"/>
<path d="M0 0 C2.64811622 3.27344244 4.48042659 6.71688731 6.35546875 10.48046875 C6.66196854 11.09392654 6.96846832 11.70738434 7.28425598 12.33943176 C7.92732644 13.62858013 8.56846332 14.91869465 9.20776367 16.2097168 C10.19051517 18.19358668 11.17971947 20.17413711 12.16992188 22.15429688 C17 31.85242677 17 31.85242677 17 33 C13.37 33 9.74 33 6 33 C4.02 29.04 2.04 25.08 0 21 C-2.15016583 23.86688777 -3.67007588 26.11050183 -5.1875 29.25 C-5.785625 30.4875 -6.38375 31.725 -7 33 C-10.63 33 -14.26 33 -18 33 C-12.57684926 21.65395426 -6.39141923 10.82426175 0 0 Z " fill="#0F3445" transform="translate(490,352)"/>
<path d="M0 0 C0.66 0 1.32 0 2 0 C2.31227539 0.65484375 2.62455078 1.3096875 2.94628906 1.984375 C4.38009258 4.98994981 5.81503813 7.99497806 7.25 11 C7.74113281 12.02996094 8.23226562 13.05992187 8.73828125 14.12109375 C10.9004394 18.64721148 13.07097255 23.16120263 15.359375 27.625 C17 31 17 31 17 33 C13.7 33 10.4 33 7 33 C5.99491199 31.21118264 4.99607264 29.41885304 4 27.625 C3.443125 26.62726563 2.88625 25.62953125 2.3125 24.6015625 C1 22 1 22 1 20 C0.34 20 -0.32 20 -1 20 C-1.2475 20.845625 -1.495 21.69125 -1.75 22.5625 C-3.13973627 26.38427474 -4.91120838 29.51868063 -7 33 C-10.3 33 -13.6 33 -17 33 C-15.37409742 26.94073572 -12.20953131 21.86604387 -9.0625 16.5 C-4.30642636 8.37066305 -4.30642636 8.37066305 0 0 Z " fill="#0F3445" transform="translate(545,352)"/>
<path d="M0 0 C0 3 0 3 -2.1953125 5.5234375 C-3.16361582 6.48237068 -4.14068477 7.43250985 -5.125 8.375 C-5.62620361 8.86524658 -6.12740723 9.35549316 -6.64379883 9.8605957 C-9.96740384 13.08522947 -13.35677337 16.14449805 -17 19 C-17.66 18.67 -18.32 18.34 -19 18 C-17.89591797 17.00419922 -17.89591797 17.00419922 -16.76953125 15.98828125 C-15.79371094 15.10527344 -14.81789063 14.22226562 -13.8125 13.3125 C-12.84957031 12.44238281 -11.88664062 11.57226562 -10.89453125 10.67578125 C-8.19327132 8.17866512 -5.58285964 5.61873269 -3 3 C-2 2 -1 1 0 0 Z " fill="#614E54" transform="translate(381,765)"/>
</svg>
